<svg width="70" height="70" viewBox="0 0 70 70" fill="none" xmlns="http://www.w3.org/2000/svg">
<path d="M13.125 43.75C13.125 45.7552 13.387 47.6921 13.9111 49.5605C14.4352 51.429 15.1644 53.1722 16.0986 54.79C17.0329 56.4079 18.1722 57.8776 19.5166 59.1992C20.861 60.5208 22.3421 61.6602 23.96 62.6172C25.5778 63.5742 27.321 64.3148 29.1895 64.8389C31.0579 65.363 32.9948 65.625 35 65.625C36.5039 65.625 37.9964 65.4769 39.4775 65.1807C40.9587 64.8844 42.3828 64.4173 43.75 63.7793V68.4619C40.9473 69.4873 38.0306 70 35 70C32.5846 70 30.2604 69.6924 28.0273 69.0771C25.7943 68.4619 23.7093 67.5732 21.7725 66.4111C19.8356 65.249 18.0583 63.8818 16.4404 62.3096C14.8226 60.7373 13.4554 58.9714 12.3389 57.0117C11.2223 55.0521 10.3451 52.9557 9.70703 50.7227C9.06901 48.4896 8.75 46.1654 8.75 43.75C8.75 41.8359 8.95508 39.9561 9.36523 38.1104C9.77539 36.2646 10.3678 34.4987 11.1426 32.8125C11.9173 31.1263 12.8743 29.5312 14.0137 28.0273C15.153 26.5234 16.4404 25.1335 17.876 23.8574C18.0127 24.7005 18.2178 25.5892 18.4912 26.5234C18.7646 27.4577 19.0951 28.3805 19.4824 29.292C19.8698 30.2035 20.3027 31.0807 20.7812 31.9238C21.2598 32.7669 21.7839 33.5075 22.3535 34.1455C22.8548 34.7152 23.4473 35 24.1309 35C24.7461 35 25.2588 34.7835 25.6689 34.3506C26.0791 33.9176 26.2956 33.3936 26.3184 32.7783C26.3184 32.5277 26.2842 32.2998 26.2158 32.0947C26.1475 31.8896 26.0335 31.6846 25.874 31.4795C24.598 29.611 23.6182 27.7539 22.9346 25.9082C22.251 24.0625 21.8978 21.9889 21.875 19.6875C21.875 16.9759 22.3877 14.4238 23.4131 12.0312C24.4385 9.63867 25.8512 7.55371 27.6514 5.77637C29.4515 3.99902 31.5365 2.59766 33.9062 1.57227C36.276 0.546875 38.8281 0.0227865 41.5625 0H43.75V2.1875C43.75 6.2207 44.502 9.98047 46.0059 13.4668C47.5098 16.9531 49.6745 20.1204 52.5 22.9688C55.3255 25.8171 57.4902 28.9844 58.9941 32.4707C60.498 35.957 61.25 39.7168 61.25 43.75H56.875C56.875 40.2865 56.237 37.085 54.9609 34.1455C53.6849 31.2061 51.8392 28.5173 49.4238 26.0791C46.4616 23.0713 44.1374 19.79 42.4512 16.2354C40.765 12.6807 39.7624 8.77279 39.4434 4.51172C37.5521 4.76237 35.8089 5.33203 34.2139 6.2207C32.6188 7.10938 31.2174 8.2373 30.0098 9.60449C28.8021 10.9717 27.8792 12.5098 27.2412 14.2188C26.6032 15.9277 26.2728 17.7507 26.25 19.6875C26.25 21.4876 26.512 23.0941 27.0361 24.5068C27.5602 25.9196 28.335 27.3551 29.3604 28.8135C29.7933 29.4515 30.1237 30.0667 30.3516 30.6592C30.5794 31.2516 30.7048 31.958 30.7275 32.7783C30.7275 33.6898 30.5566 34.5443 30.2148 35.3418C29.873 36.1393 29.3945 36.8343 28.7793 37.4268C28.1641 38.0192 27.4691 38.4977 26.6943 38.8623C25.9196 39.2269 25.0651 39.3978 24.1309 39.375C23.0827 39.375 22.1598 39.1813 21.3623 38.7939C20.5648 38.4066 19.8584 37.8825 19.2432 37.2217C18.6279 36.5609 18.0697 35.8203 17.5684 35C17.0671 34.1797 16.6227 33.3594 16.2354 32.5391C15.21 34.248 14.4352 36.0482 13.9111 37.9395C13.387 39.8307 13.125 41.7676 13.125 43.75ZM70 56.875V61.25H61.25V70H56.875V61.25H48.125V56.875H56.875V48.125H61.25V56.875H70Z" fill="#F14647"/>
</svg>
