<svg width="70" height="70" viewBox="0 0 70 70" fill="none" xmlns="http://www.w3.org/2000/svg">
<path fill-rule="evenodd" clip-rule="evenodd" d="M15.7283 28.4113H53.9221C52.7321 20.1863 44.9052 13.5363 35.0002 13.4619V17.5H30.6252V13.8688C22.6846 15.4307 16.7564 21.3325 15.7283 28.4113ZM35.0002 21.875V17.5H39.3752V21.875H35.0002ZM35.0002 21.875H30.6252V26.25H35.0002V21.875ZM58.3364 28.4113C57.1246 17.3907 46.8739 9.08691 34.8252 9.08691C22.7764 9.08691 12.5258 17.3907 11.3139 28.4113H6.3877V30.5988C6.38815 35.7568 7.78716 40.8181 10.4358 45.244C13.0845 49.67 16.8836 53.295 21.4289 55.7332V60.9875H48.3658V55.7332C52.9111 53.295 56.7103 49.67 59.359 45.244C62.0076 40.8181 63.4066 35.7568 63.4071 30.5988V28.4113H58.3364ZM28.4377 21.875H24.0627V17.5H28.4377V21.875ZM45.9377 21.875H41.5627V17.5H45.9377V21.875Z" fill="white"/>
</svg>
