<svg width="70" height="70" viewBox="0 0 70 70" fill="none" xmlns="http://www.w3.org/2000/svg">
<path d="M10.7012 51.9203L10.7099 51.9138C2.10869 42.7788 2.26619 28.3544 11.1824 19.436C15.1199 15.4985 20.3481 13.0703 25.8824 12.5672C28.673 12.3232 31.2896 11.1078 33.2762 9.13284L33.6699 8.73909C39.3356 3.07346 48.4837 2.92471 54.3331 8.29065L54.344 8.27971L54.8034 8.73909L61.2346 15.1703C67.0534 20.9891 67.0534 30.4828 61.2346 36.3016L60.8409 36.6953C58.8721 38.686 57.6471 41.311 57.4065 44.0891C56.9253 49.6453 54.4971 54.8735 50.5596 58.811C41.4596 67.8891 26.6721 67.8891 17.594 58.811L10.7012 51.9203ZM10.7668 25.386C6.08119 32.9 6.88181 42.8641 13.1687 49.5382C13.3058 49.684 13.4465 49.8291 13.5909 49.9735C15.9228 52.3063 18.7985 54.0224 21.9589 54.9672C25.1192 55.9119 28.4649 56.0556 31.6946 55.3853C34.0367 54.9007 36.2709 53.9934 38.2878 52.7078C39.3596 52.0297 39.7752 50.6516 39.2284 49.4922L32.994 36.411C31.762 33.8585 29.6931 31.805 27.1315 30.5922L13.9846 24.4235C12.8252 23.8985 11.4449 24.2922 10.7668 25.386ZM40.1471 46.211C40.3258 46.5904 40.5968 46.9191 40.9351 47.1669C41.2735 47.4147 41.6686 47.5739 42.0843 47.6298C42.5 47.6857 42.923 47.6366 43.3149 47.4869C43.7067 47.3373 44.0548 47.0919 44.3274 46.7732C46.1751 43.958 47.295 40.7281 47.5868 37.3735C47.8931 33.786 49.4681 30.4172 52.0056 27.8578L52.3993 27.4641C53.505 26.3608 54.3745 25.044 54.9547 23.5938C55.535 22.1437 55.814 20.5905 55.7746 19.0291C55.7374 17.4517 55.3755 15.899 54.7116 14.4677C54.0477 13.0364 53.096 11.7572 51.9159 10.71C47.3484 6.65221 40.3199 6.94752 35.969 11.2985L35.7065 11.561C33.1496 14.1022 29.7822 15.6659 26.1909 15.9797C22.9096 16.2641 19.7596 17.336 17.0034 19.086C15.3409 20.1578 15.494 22.6516 17.2877 23.4828L28.0502 28.5797C28.0619 28.5812 28.0736 28.5848 28.0852 28.5906C28.0969 28.5965 28.1071 28.6001 28.1159 28.6016C30.2377 29.586 32.7315 29.2141 34.394 27.5516L36.0127 25.9328C37.0409 24.9047 37.4346 23.3953 37.019 22.0172C36.6617 20.8314 36.6317 19.5711 36.932 18.3697C37.2324 17.1682 37.852 16.0703 38.7252 15.1922C39.3841 14.5297 40.1723 14.0101 41.0408 13.6656C41.9093 13.3211 42.8394 13.1592 43.7732 13.19C44.707 13.2208 45.6245 13.4436 46.4684 13.8445C47.3123 14.2454 48.0646 14.8159 48.6784 15.5203C50.9315 18.0578 50.9315 21.9516 48.6784 24.511C46.819 26.611 44.019 27.2891 41.569 26.5453C40.8854 26.334 40.1569 26.314 39.4628 26.4875C38.7686 26.6611 38.1352 27.0215 37.6315 27.5297L36.0346 29.1266C34.3721 30.7891 34.0002 33.3047 35.0065 35.4266C35.0065 35.4368 35.0109 35.4441 35.0196 35.4485C35.0255 35.4528 35.0291 35.4601 35.0306 35.4703L40.1471 46.211ZM40.8252 17.2485C39.3596 18.7141 39.3596 21.0766 40.8252 22.5422C42.2909 24.0078 44.6753 24.0078 46.1409 22.5641C47.6065 21.0985 47.6065 18.7141 46.1409 17.2485C45.4355 16.5445 44.4796 16.1491 43.4831 16.1491C42.4865 16.1491 41.5306 16.5445 40.8252 17.2485Z" fill="white"/>
</svg>
