<svg width="163" height="202" viewBox="0 0 163 202" fill="none" xmlns="http://www.w3.org/2000/svg">
<path d="M39.6477 185.06L35.1077 193.74V199H33.2877V193.74L28.7277 185.06H30.7477L34.1877 192.12L37.6277 185.06H39.6477ZM46.3473 199.18C45.3207 199.18 44.3873 198.947 43.5473 198.48C42.7207 198.013 42.0673 197.353 41.5873 196.5C41.1207 195.633 40.8873 194.633 40.8873 193.5C40.8873 192.38 41.1273 191.393 41.6073 190.54C42.1007 189.673 42.7673 189.013 43.6073 188.56C44.4473 188.093 45.3873 187.86 46.4273 187.86C47.4673 187.86 48.4073 188.093 49.2473 188.56C50.0873 189.013 50.7473 189.667 51.2273 190.52C51.7207 191.373 51.9673 192.367 51.9673 193.5C51.9673 194.633 51.714 195.633 51.2073 196.5C50.714 197.353 50.0407 198.013 49.1873 198.48C48.334 198.947 47.3873 199.18 46.3473 199.18ZM46.3473 197.58C47.0007 197.58 47.614 197.427 48.1873 197.12C48.7607 196.813 49.2207 196.353 49.5673 195.74C49.9273 195.127 50.1073 194.38 50.1073 193.5C50.1073 192.62 49.934 191.873 49.5873 191.26C49.2407 190.647 48.7873 190.193 48.2273 189.9C47.6673 189.593 47.0607 189.44 46.4073 189.44C45.7407 189.44 45.1273 189.593 44.5673 189.9C44.0207 190.193 43.5807 190.647 43.2473 191.26C42.914 191.873 42.7473 192.62 42.7473 193.5C42.7473 194.393 42.9073 195.147 43.2273 195.76C43.5607 196.373 44.0007 196.833 44.5473 197.14C45.094 197.433 45.694 197.58 46.3473 197.58ZM64.0803 188.04V199H62.2603V197.38C61.9136 197.94 61.427 198.38 60.8003 198.7C60.187 199.007 59.507 199.16 58.7603 199.16C57.907 199.16 57.1403 198.987 56.4603 198.64C55.7803 198.28 55.2403 197.747 54.8403 197.04C54.4536 196.333 54.2603 195.473 54.2603 194.46V188.04H56.0603V194.22C56.0603 195.3 56.3336 196.133 56.8803 196.72C57.427 197.293 58.1736 197.58 59.1203 197.58C60.0936 197.58 60.8603 197.28 61.4203 196.68C61.9803 196.08 62.2603 195.207 62.2603 194.06V188.04H64.0803ZM68.9733 189.82C69.2933 189.193 69.7466 188.707 70.3333 188.36C70.9333 188.013 71.6599 187.84 72.5133 187.84V189.72H72.0333C69.9933 189.72 68.9733 190.827 68.9733 193.04V199H67.1533V188.04H68.9733V189.82ZM89.2663 189.14C89.2663 190.3 88.8663 191.267 88.0663 192.04C87.2796 192.8 86.0729 193.18 84.4463 193.18H81.7663V199H79.9463V185.06H84.4463C86.0196 185.06 87.2129 185.44 88.0263 186.2C88.8529 186.96 89.2663 187.94 89.2663 189.14ZM84.4463 191.68C85.4596 191.68 86.2063 191.46 86.6863 191.02C87.1663 190.58 87.4063 189.953 87.4063 189.14C87.4063 187.42 86.4196 186.56 84.4463 186.56H81.7663V191.68H84.4463ZM96.9683 187.84C97.7949 187.84 98.5416 188.02 99.2083 188.38C99.8749 188.727 100.395 189.253 100.768 189.96C101.155 190.667 101.348 191.527 101.348 192.54V199H99.5483V192.8C99.5483 191.707 99.2749 190.873 98.7283 190.3C98.1816 189.713 97.4349 189.42 96.4883 189.42C95.5283 189.42 94.7616 189.72 94.1883 190.32C93.6283 190.92 93.3483 191.793 93.3483 192.94V199H91.5283V184.2H93.3483V189.6C93.7083 189.04 94.2016 188.607 94.8283 188.3C95.4683 187.993 96.1816 187.84 96.9683 187.84ZM109.101 199.18C108.075 199.18 107.141 198.947 106.301 198.48C105.475 198.013 104.821 197.353 104.341 196.5C103.875 195.633 103.641 194.633 103.641 193.5C103.641 192.38 103.881 191.393 104.361 190.54C104.855 189.673 105.521 189.013 106.361 188.56C107.201 188.093 108.141 187.86 109.181 187.86C110.221 187.86 111.161 188.093 112.001 188.56C112.841 189.013 113.501 189.667 113.981 190.52C114.475 191.373 114.721 192.367 114.721 193.5C114.721 194.633 114.468 195.633 113.961 196.5C113.468 197.353 112.795 198.013 111.941 198.48C111.088 198.947 110.141 199.18 109.101 199.18ZM109.101 197.58C109.755 197.58 110.368 197.427 110.941 197.12C111.515 196.813 111.975 196.353 112.321 195.74C112.681 195.127 112.861 194.38 112.861 193.5C112.861 192.62 112.688 191.873 112.341 191.26C111.995 190.647 111.541 190.193 110.981 189.9C110.421 189.593 109.815 189.44 109.161 189.44C108.495 189.44 107.881 189.593 107.321 189.9C106.775 190.193 106.335 190.647 106.001 191.26C105.668 191.873 105.501 192.62 105.501 193.5C105.501 194.393 105.661 195.147 105.981 195.76C106.315 196.373 106.755 196.833 107.301 197.14C107.848 197.433 108.448 197.58 109.101 197.58ZM119.334 189.54V196C119.334 196.533 119.448 196.913 119.674 197.14C119.901 197.353 120.294 197.46 120.854 197.46H122.194V199H120.554C119.541 199 118.781 198.767 118.274 198.3C117.768 197.833 117.514 197.067 117.514 196V189.54H116.094V188.04H117.514V185.28H119.334V188.04H122.194V189.54H119.334ZM129.179 199.18C128.153 199.18 127.219 198.947 126.379 198.48C125.553 198.013 124.899 197.353 124.419 196.5C123.953 195.633 123.719 194.633 123.719 193.5C123.719 192.38 123.959 191.393 124.439 190.54C124.933 189.673 125.599 189.013 126.439 188.56C127.279 188.093 128.219 187.86 129.259 187.86C130.299 187.86 131.239 188.093 132.079 188.56C132.919 189.013 133.579 189.667 134.059 190.52C134.553 191.373 134.799 192.367 134.799 193.5C134.799 194.633 134.546 195.633 134.039 196.5C133.546 197.353 132.873 198.013 132.019 198.48C131.166 198.947 130.219 199.18 129.179 199.18ZM129.179 197.58C129.833 197.58 130.446 197.427 131.019 197.12C131.593 196.813 132.053 196.353 132.399 195.74C132.759 195.127 132.939 194.38 132.939 193.5C132.939 192.62 132.766 191.873 132.419 191.26C132.073 190.647 131.619 190.193 131.059 189.9C130.499 189.593 129.893 189.44 129.239 189.44C128.573 189.44 127.959 189.593 127.399 189.9C126.853 190.193 126.413 190.647 126.079 191.26C125.746 191.873 125.579 192.62 125.579 193.5C125.579 194.393 125.739 195.147 126.059 195.76C126.393 196.373 126.833 196.833 127.379 197.14C127.926 197.433 128.526 197.58 129.179 197.58Z" fill="#6A6A6A"/>
<path d="M16.463 163C11.77 163 7.85456 161.431 4.71681 158.293C1.57906 155.156 0.00679167 151.237 0 146.537V16.463C0 11.77 1.57227 7.85456 4.71681 4.71681C7.86135 1.57906 11.7768 0.00679167 16.463 0H146.547C151.233 0 155.149 1.57227 158.293 4.71681C161.438 7.86135 163.007 11.7768 163 16.463V146.547C163 151.233 161.431 155.149 158.293 158.293C155.156 161.438 151.237 163.007 146.537 163H16.463ZM35.6562 127.344H128.913L100.113 88.9369L73.4722 122.637L55.6441 101.091L35.6562 127.344Z" fill="#C6C6C6" fill-opacity="0.5"/>
</svg>
