<svg width="174" height="174" viewBox="0 0 174 174" fill="none" xmlns="http://www.w3.org/2000/svg">
<path d="M16.463 163C11.77 163 7.85456 161.431 4.71681 158.293C1.57906 155.156 0.00679167 151.237 0 146.537V16.463C0 11.77 1.57227 7.85456 4.71681 4.71681C7.86135 1.57906 11.7768 0.00679167 16.463 0H146.547C151.233 0 155.149 1.57227 158.293 4.71681C161.438 7.86135 163.007 11.7768 163 16.463V146.547C163 151.233 161.431 155.149 158.293 158.293C155.156 161.438 151.237 163.007 146.537 163H16.463ZM35.6562 127.344H128.913L100.113 88.9369L73.4722 122.637L55.6441 101.091L35.6562 127.344Z" fill="#C6C6C6" fill-opacity="0.5"/>
<path d="M132.222 127H168.778C170.163 127 171.491 127.55 172.47 128.53C173.45 129.509 174 130.837 174 132.222V168.778C174 171.676 171.676 174 168.778 174H132.222C130.837 174 129.509 173.45 128.53 172.47C127.55 171.491 127 170.163 127 168.778V132.222C127 129.35 129.35 127 132.222 127ZM160.944 163.556V158.333H140.056V163.556H160.944ZM160.944 147.889L150.5 137.444L140.056 147.889H146.583V155.722H154.417V147.889H160.944Z" fill="#6A6A6A"/>
</svg>
